HIERARCHY
ROOT Hips
{
 OFFSET 0.000000 0.000000 0.000000
 CHANNELS 6 Xposition Yposition Zposition Yrotation Xrotation Zrotation
 JOINT Chest
 {
  OFFSET 0.000000 9.857222 0.000240
  CHANNELS 3 Yrotation Xrotation Zrotation
  JOINT Chest2
  {
   OFFSET 0.000000 10.876940 -0.000436
   CHANNELS 3 Yrotation Xrotation Zrotation
   JOINT Chest3
   {
    OFFSET 0.000000 9.827798 0.000000
    CHANNELS 3 Yrotation Xrotation Zrotation
    JOINT Chest4
    {
     OFFSET 0.000000 9.827798 0.000000
     CHANNELS 3 Yrotation Xrotation Zrotation
     JOINT Neck
     {
      OFFSET 0.000000 13.831992 0.000000
      CHANNELS 3 Yrotation Xrotation Zrotation
      JOINT Head
      {
       OFFSET 0.000000 9.147643 -0.001036
       CHANNELS 3 Yrotation Xrotation Zrotation
       End Site
       {
        OFFSET 0.000000 17.515799 -0.000541
       }
      }
     }
     JOINT RightCollar
     {
      OFFSET -3.001579 7.717577 0.000000
      CHANNELS 3 Yrotation Xrotation Zrotation
      JOINT RightShoulder
      {
       OFFSET -14.002642 0.000000 0.000000
       CHANNELS 3 Yrotation Xrotation Zrotation
       JOINT RightElbow
       {
        OFFSET -30.053852 0.000000 0.000000
        CHANNELS 3 Yrotation Xrotation Zrotation
        JOINT RightWrist
        {
         OFFSET -24.564923 0.000000 -0.000000
         CHANNELS 3 Yrotation Xrotation Zrotation
         End Site
         {
          OFFSET -18.334355 0.000000 0.000000
         }
        }
       }
      }
     }
     JOINT LeftCollar
     {
      OFFSET 3.001579 7.717577 0.000000
      CHANNELS 3 Yrotation Xrotation Zrotation
      JOINT LeftShoulder
      {
       OFFSET 14.002642 0.000000 0.000000
       CHANNELS 3 Yrotation Xrotation Zrotation
       JOINT LeftElbow
       {
        OFFSET 30.053852 0.000000 0.000000
        CHANNELS 3 Yrotation Xrotation Zrotation
        JOINT LeftWrist
        {
         OFFSET 24.564923 0.000000 -0.000000
         CHANNELS 3 Yrotation Xrotation Zrotation
         End Site
         {
          OFFSET 18.334355 0.000000 0.000000
         }
        }
       }
      }
     }
    }
   }
  }
 }
 JOINT RightHip
 {
  OFFSET -8.003235 -0.001175 -0.000120
  CHANNELS 3 Yrotation Xrotation Zrotation
  JOINT RightKnee
  {
   OFFSET 0.000000 -41.759727 0.000113
   CHANNELS 3 Yrotation Xrotation Zrotation
   JOINT RightAnkle
   {
    OFFSET 0.000000 -40.728748 0.000159
    CHANNELS 3 Yrotation Xrotation Zrotation
    JOINT RightToe
    {
     OFFSET 0.000000 -6.515296 14.732841
     CHANNELS 3 Yrotation Xrotation Zrotation
     End Site
     {
      OFFSET 0.000000 -1.502839 6.412115
     }
    }
   }
  }
 }
 JOINT LeftHip
 {
  OFFSET 8.003235 -0.001175 -0.000120
  CHANNELS 3 Yrotation Xrotation Zrotation
  JOINT LeftKnee
  {
   OFFSET 0.000000 -41.759727 0.000113
   CHANNELS 3 Yrotation Xrotation Zrotation
   JOINT LeftAnkle
   {
    OFFSET 0.000000 -40.728748 0.000159
    CHANNELS 3 Yrotation Xrotation Zrotation
    JOINT LeftToe
    {
     OFFSET 0.000000 -6.515296 14.732841
     CHANNELS 3 Yrotation Xrotation Zrotation
     End Site
     {
      OFFSET 0.000000 -1.502839 6.412115
     }
    }
   }
  }
 }
}
MOTION
Frames: 14
Frame Time: 0.016667
4.940769 90.398883 14.104760 -33.610017 -6.650532 1.253986 -0.944812 -3.212791 -1.527406 -0.123417 -1.085379 -0.515103 -0.123417 -1.085379 -0.515103 -0.093475 -0.813931 -0.386535 5.854429 30.802820 0.958190 10.211244 21.098407 0.722256 4.786618 21.321339 12.668744 21.870449 2.963152 56.351098 131.361712 -18.329496 -3.178438 7.569901 -4.231124 -15.529422 -20.954508 32.167303 -16.129005 -49.634398 0.219197 0.745353 -76.014602 -6.783137 44.673522 10.449911 12.256889 23.839228 -11.348234 5.946546 -5.395884 3.642917 6.787747 -1.058377 -1.151400 -6.872224 1.747605 0.011745 -0.091430 0.026105 -31.245006 16.819026 -2.551572 35.547581 2.279822 -9.149980 9.273223 -8.971628 -0.198537 0.070194 0.309739 -0.021686
4.926710 90.394042 14.081202 -33.063507 -6.989659 1.121173 -0.571207 -3.133055 -1.393379 0.008471 -1.085689 -0.447267 0.008471 -1.085689 -0.447267 0.005559 -0.814273 -0.335425 5.456676 30.811694 0.930003 9.510993 21.102019 0.738058 5.123684 21.797478 12.779775 24.204964 0.100549 54.287538 128.521974 -14.855575 -3.014591 6.963406 -3.709736 -16.593280 -21.531705 31.788937 -16.796002 -48.080959 0.982770 -2.105046 -81.712540 -3.960363 45.154919 10.206910 11.814450 23.637345 -11.688895 6.340737 -5.372775 3.552549 6.797379 -1.042457 -1.187413 -6.888729 1.746400 0.013787 -0.129320 0.012750 -31.860265 17.045258 -2.634504 35.707733 2.350654 -9.102975 9.105410 -8.890685 -0.175042 0.028569 0.273044 -0.042595
4.906861 90.392593 14.061735 -32.557206 -7.359756 1.003441 -0.126550 -3.022764 -1.259411 0.174904 -1.067982 -0.385610 0.174904 -1.067982 -0.385610 0.130500 -0.801098 -0.288894 5.029833 30.816156 0.895196 8.760355 21.098017 0.746807 5.465892 22.232986 12.915361 26.469236 -2.693852 52.031807 125.434621 -11.179566 -2.709199 6.378041 -3.018926 -17.655676 -21.987639 31.151757 -17.174674 -46.197318 2.248419 -5.313656 -88.544870 -1.798671 45.296399 9.695662 11.113198 23.211274 -11.915163 6.769173 -5.368721 3.399140 6.804402 -1.026791 -1.189247 -6.890477 1.753791 0.015612 -0.176815 -0.001550 -32.541671 17.292932 -2.793894 35.852191 2.410145 -9.048466 9.123981 -8.827676 -0.191363 0.016712 0.238881 -0.045094
4.885436 90.390083 14.058812 -32.121049 -7.702184 0.881251 0.370788 -2.881642 -1.102054 0.335760 -1.071691 -0.326268 0.335760 -1.071691 -0.326268 0.251241 -0.803948 -0.244105 4.616693 30.813711 0.831021 8.038993 21.084482 0.701154 5.996855 22.713907 13.117511 28.854048 -5.263915 49.544177 121.856985 -6.216266 -2.604145 5.666256 -2.158889 -18.543563 -22.204880 30.765452 -17.492677 -44.562292 3.304200 -8.923723 -96.353820 -0.286481 44.972433 9.142738 10.958438 22.591881 -11.995635 7.184425 -5.331250 3.224862 6.813990 -1.024982 -1.231942 -6.898389 1.774612 0.016714 -0.219934 -0.015016 -33.203035 17.528656 -2.955063 35.962173 2.470933 -8.987370 9.177056 -8.773927 -0.208146 -0.007711 0.192645 -0.054376
4.857543 90.378827 14.065661 -31.719966 -7.969801 0.753848 0.923799 -2.760261 -0.967953 0.510789 -1.099575 -0.284216 0.510789 -1.099575 -0.284216 0.382568 -0.824919 -0.212237 4.201704 30.778700 0.812752 7.306535 21.008914 0.735536 6.382321 23.166077 13.326929 31.611821 -7.445709 46.823152 117.766415 -0.320149 -2.926750 4.752314 -1.408001 -19.395214 -22.520200 30.564706 -17.935217 -42.906183 4.529719 -12.546607 -104.142986 0.549321 44.020487 8.631917 10.714709 22.093240 -12.024386 7.530756 -5.267013 3.059819 6.832206 -1.028903 -1.279268 -6.940411 1.795721 0.021382 -0.236143 -0.020651 -33.752297 17.731929 -3.079679 36.043012 2.503732 -8.928413 9.242762 -8.767493 -0.230239 -0.016928 0.191950 -0.055335
4.817621 90.367151 14.087944 -31.390713 -8.297506 0.626806 1.494723 -2.614393 -0.847802 0.694440 -1.116483 -0.261703 0.694440 -1.116483 -0.261703 0.520335 -0.837661 -0.195003 3.794052 30.721545 0.840485 6.579221 20.891616 0.849640 6.641184 23.620601 13.450372 34.609654 -9.258094 43.903666 113.499625 4.735068 -3.522531 3.800386 -0.844517 -20.351254 -22.820660 30.480944 -18.278312 -40.712178 5.012122 -15.977362 -111.851598 0.242668 41.715385 8.119069 9.919934 21.613366 -11.950121 7.945651 -5.194502 2.864759 6.861299 -1.038040 -1.327523 -7.021191 1.809646 0.025702 -0.226328 -0.020001 -34.114998 18.025016 -3.203310 36.028747 2.531109 -8.878757 9.289857 -8.752387 -0.256004 -0.029433 0.167985 -0.059361
4.761661 90.359640 14.119512 -31.057849 -8.564647 0.528315 2.050228 -2.521629 -0.770971 0.892753 -1.126971 -0.259016 0.892753 -1.126971 -0.259016 0.669066 -0.845609 -0.192610 3.373859 30.655691 0.898325 5.824466 20.758535 1.019602 6.780474 23.918727 13.488278 37.743432 -10.686814 41.043549 108.899641 8.364444 -3.995046 2.965562 -0.117640 -21.444871 -22.763792 30.333442 -18.162324 -38.299848 5.324475 -19.725594 -119.667945 -1.066210 38.782739 7.639914 8.107447 21.232795 -11.866622 8.311019 -5.128955 2.639068 6.881496 -1.058467 -1.352486 -7.098734 1.824168 0.030232 -0.223751 -0.017907 -34.219478 18.304057 -3.256572 35.842816 2.531406 -8.834050 9.265375 -8.735075 -0.295715 -0.010007 0.141553 -0.051878
4.691469 90.348875 14.152713 -30.685542 -8.711935 0.466217 2.539716 -2.489558 -0.684499 1.070982 -1.150380 -0.249178 1.070982 -1.150380 -0.249178 0.802741 -0.863225 -0.184862 2.941575 30.598545 0.892848 5.059072 20.645790 1.080753 6.967600 24.166515 13.422120 40.845471 -12.141540 38.153305 103.581459 11.927691 -4.374883 2.170352 0.438031 -22.196446 -22.610475 30.059608 -18.096919 -36.046781 6.343232 -23.885439 -128.411883 -4.326230 36.388094 7.312661 7.389922 21.491640 -11.821591 8.569513 -5.074492 2.422677 6.881875 -1.077650 -1.381444 -7.154416 1.837319 0.031886 -0.239607 -0.019751 -34.102355 18.507980 -3.166432 35.551068 2.545370 -8.818252 9.018762 -8.737168 -0.341402 0.044851 0.135123 -0.034004
4.580396 90.333313 14.179579 -30.326576 -8.850541 0.398235 3.041305 -2.447085 -0.597465 1.244335 -1.178739 -0.249875 1.244335 -1.178739 -0.249875 0.932736 -0.884568 -0.185001 2.515436 30.538945 0.879244 4.305928 20.530360 1.127174 7.138631 24.469111 13.391733 44.013874 -13.594099 35.036903 97.680707 15.960554 -4.981565 1.501031 0.726030 -22.702096 -22.582902 30.068250 -18.226649 -34.018861 7.707941 -27.860096 -136.434563 -8.704015 35.482092 6.648722 7.297658 21.415723 -11.747096 8.840468 -4.990534 2.231825 6.867659 -1.088440 -1.425335 -7.186375 1.837440 0.026642 -0.278750 -0.030402 -33.653397 18.756317 -2.906335 35.144019 2.600218 -8.860664 8.561811 -8.757758 -0.398067 0.166572 0.146790 0.003036
4.449396 90.319209 14.182212 -29.950977 -8.962624 0.330488 3.445429 -2.481346 -0.519964 1.409994 -1.202819 -0.241552 1.409994 -1.202819 -0.241552 1.056982 -0.902678 -0.178383 2.108193 30.493226 0.847250 3.589522 20.442683 1.138896 7.268482 24.873081 13.298054 47.253774 -14.782107 31.691616 92.052218 19.374996 -5.460648 1.008779 1.197120 -23.788849 -22.498883 30.321798 -18.431352 -32.082505 9.119899 -31.327757 -143.405615 -14.167992 35.857845 5.462412 7.588783 20.721235 -11.645730 9.084267 -4.878620 2.028780 6.859098 -1.093028 -1.482599 -7.244093 1.829113 0.013647 -0.288971 -0.050715 -33.042940 18.982236 -2.532029 34.738581 2.694508 -8.923825 8.004205 -8.718905 -0.432503 0.254107 0.120992 0.012915
4.317123 90.312580 14.166199 -29.621189 -9.038874 0.306242 3.861818 -2.524487 -0.512145 1.598871 -1.212659 -0.234891 1.598871 -1.212659 -0.234891 1.198643 -0.910116 -0.172990 1.695533 30.438939 0.839274 2.859312 20.339812 1.194477 7.198384 25.252636 13.116317 50.603751 -15.861933 28.339360 86.714427 22.147863 -6.522099 0.672826 0.920892 -24.195242 -22.311210 30.420748 -18.414789 -30.340898 10.912167 -34.608942 -149.568596 -19.506536 36.125329 4.519785 7.403771 20.354713 -11.467884 9.276421 -4.786437 1.749783 6.843300 -1.090400 -1.499838 -7.279436 1.816858 0.000616 -0.298217 -0.076027 -32.614573 19.076670 -2.262646 34.533949 2.824262 -8.902788 7.514337 -8.648122 -0.444899 0.264686 0.082432 -0.021746
4.202422 90.309910 14.149015 -29.242925 -9.102386 0.305470 4.263315 -2.517405 -0.547568 1.774109 -1.210762 -0.230641 1.774109 -1.210762 -0.230641 1.330076 -0.908750 -0.169461 1.288986 30.385438 0.854279 2.135920 20.239595 1.290367 7.121177 25.622058 12.899213 53.720444 -17.274844 24.896515 81.534656 23.986304 -6.853370 0.320082 0.716163 -24.411225 -21.997177 30.158186 -18.207034 -28.575571 12.924474 -38.019953 -154.838502 -24.189599 35.682100 3.918404 6.325789 20.338055 -11.338779 9.450371 -4.725440 1.444611 6.815842 -1.097247 -1.513161 -7.297994 1.821967 -0.008354 -0.307433 -0.099834 -32.479810 19.080529 -2.146545 34.501180 2.951846 -8.787753 7.141609 -8.581027 -0.442552 0.215626 0.064988 -0.088170
4.089893 90.312072 14.178449 -28.929023 -9.306821 0.300449 4.761302 -2.373140 -0.577972 1.939534 -1.205565 -0.234307 1.939534 -1.205565 -0.234307 1.454135 -0.904928 -0.171899 0.901101 30.366411 0.913260 1.438225 20.204783 1.461878 7.079452 25.945848 12.736083 56.648249 -18.515526 21.556260 76.022667 26.368806 -6.830363 -0.251491 0.501862 -24.374838 -21.630125 29.862807 -17.895429 -27.074942 15.032376 -41.700026 -159.170796 -28.404815 35.240033 3.427383 5.528586 20.296450 -11.149081 9.785415 -4.692835 1.141479 6.775509 -1.109157 -1.545916 -7.281223 1.856047 -0.007643 -0.351641 -0.122887 -32.040568 19.288942 -2.100699 34.183387 2.937397 -8.663610 6.837900 -8.519383 -0.402835 0.144700 0.085974 -0.158406
3.969758 90.320036 14.241635 -28.636398 -9.564247 0.202602 5.324750 -2.155241 -0.562312 2.109250 -1.188047 -0.241713 2.109250 -1.188047 -0.241713 1.581411 -0.891882 -0.177180 0.518771 30.341015 1.033027 0.739705 20.160238 1.740324 7.023051 26.306001 12.671748 59.644493 -18.919892 18.489349 69.983887 28.832644 -7.651973 -0.686520 0.396545 -24.127216 -21.359530 29.714836 -17.578391 -25.529263 17.083691 -45.156188 -162.462862 -31.799216 34.959229 2.987666 4.917589 20.248845 -10.998823 10.208856 -4.610197 0.888796 6.708019 -1.096870 -1.536811 -7.201556 1.899447 -0.005542 -0.449747 -0.152027 -31.620208 19.632650 -1.998412 33.743501 2.906442 -8.591734 6.646208 -8.479666 -0.378646 0.125640 0.097044 -0.194268
